<svg version="1.2" xmlns="http://www.w3.org/2000/svg" viewBox="0 0 240 248" width="505" height="522">
	<style>
		.s0 { fill: #2a2829 } 
	</style>
	<path class="s0" d="m111 22c4.95 0 9.9 0 15 0 0 2.97 0 5.94 0 9q2.46 0 5 0 0 2.46 0 5 2.46 0 5 0c0 3.3 0 6.6 0 10q1.97 0 4 0c0 3.3 0 6.6 0 10q2.46 0 5 0 0 2.46 0 5 2.46 0 5 0c0 3.3 0 6.6 0 10q2.46 0 5 0c0 2.97 0 5.94 0 9q2.46 0 5 0c0 3.3 0 6.6 0 10q2.46 0 5 0 0 2.46 0 5 2.46 0 5 0c0 3.3 0 6.6 0 10q2.46 0 5 0c0 3.3 0 6.6 0 10q1.97 0 4 0c0 2.97 0 5.94 0 9q2.46 0 5 0c0 3.3 0 6.6 0 10q2.46 0 5 0c0 3.3 0 6.6 0 10q2.46 0 5 0c0 3.3 0 6.6 0 10q2.46 0 5 0c0 3.3 0 6.6 0 10q2.46 0 5 0 0 1.97 0 4 2.46 0 5 0c0 3.3 0 6.6 0 10q2.46 0 5 0c0 3.3 0 6.6 0 10q1.97 0 4 0 0 2.46 0 5 2.46 0 5 0c0 3.3 0 6.6 0 10q2.46 0 5 0c0 3.3 0 6.6 0 10q2.46 0 5 0 0 1.97 0 4 1.97 0 4 0 0 2.46 0 5c-76.89 0-153.78 0-233 0 0-2.97 0-5.94 0-9q2.46 0 5 0c0-3.3 0-6.6 0-10q2.46 0 5 0c0-3.3 0-6.6 0-10q2.46 0 5 0 0-2.46 0-5 1.97 0 4 0c0-3.3 0-6.6 0-10q2.46 0 5 0c0-3.3 0-6.6 0-10q2.46 0 5 0 0-1.97 0-4 2.46 0 5 0c0-3.3 0-6.6 0-10q2.46 0 5 0c0-3.3 0-6.6 0-10q2.46 0 5 0c0-3.3 0-6.6 0-10q2.46 0 5 0c0-3.3 0-6.6 0-10q2.46 0 5 0c0-2.97 0-5.94 0-9q1.97 0 4 0c0-3.3 0-6.6 0-10q2.46 0 5 0c0-3.3 0-6.6 0-10q2.46 0 5 0 0-2.46 0-5 2.46 0 5 0c0-3.3 0-6.6 0-10q2.46 0 5 0c0-2.97 0-5.94 0-9q2.46 0 5 0c0-3.3 0-6.6 0-10q2.46 0 5 0 0-2.46 0-5 2.46 0 5 0c0-3.3 0-6.6 0-10q1.97 0 4 0c0-3.3 0-6.6 0-10q2.46 0 5 0 0-2.46 0-5 2.46 0 5 0c0-2.97 0-5.94 0-9zm0 34q0 2.46 0 5-2.46 0-5 0c0 3.3 0 6.6 0 10q-2.46 0-5 0c0 2.97 0 5.94 0 9q-1.97 0-4 0c0 3.3 0 6.6 0 10q-2.46 0-5 0 0 2.46 0 5-2.46 0-5 0c0 3.3 0 6.6 0 10q-2.46 0-5 0c0 3.3 0 6.6 0 10q-2.46 0-5 0c0 2.97 0 5.94 0 9q-2.46 0-5 0c0 3.3 0 6.6 0 10q-2.46 0-5 0c0 3.3 0 6.6 0 10q-2.46 0-5 0c0 3.3 0 6.6 0 10q-1.97 0-4 0c0 3.3 0 6.6 0 10q-2.46 0-5 0 0 1.97 0 4-2.46 0-5 0c0 3.3 0 6.6 0 10q-2.46 0-5 0c0 3.3 0 6.6 0 10q-2.46 0-5 0 0 2.46 0 5-2.46 0-5 0c0 3.3 0 6.6 0 10q-2.46 0-5 0 0 2.46 0 5c59.73 0 119.46 0 181 0q0-2.46 0-5-2.46 0-5 0c0-3.3 0-6.6 0-10q-2.46 0-5 0 0-2.46 0-5-2.46 0-5 0c0-3.3 0-6.6 0-10q-2.46 0-5 0c0-3.3 0-6.6 0-10q-2.46 0-5 0 0-1.97 0-4-2.46 0-5 0c0-3.3 0-6.6 0-10q-1.97 0-4 0c0-3.3 0-6.6 0-10q-2.46 0-5 0c0-3.3 0-6.6 0-10q-2.46 0-5 0c0-3.3 0-6.6 0-10q-2.46 0-5 0c0-2.97 0-5.94 0-9q-2.46 0-5 0c0-3.3 0-6.6 0-10q-2.46 0-5 0c0-3.3 0-6.6 0-10q-2.46 0-5 0 0-2.46 0-5-2.46 0-5 0c0-3.3 0-6.6 0-10q-1.97 0-4 0c0-2.97 0-5.94 0-9q-2.46 0-5 0c0-3.3 0-6.6 0-10q-2.46 0-5 0 0-2.46 0-5c-4.95 0-9.9 0-15 0z"/>
	<path class="s0" d="m111 90c4.95 0 9.9 0 15 0q0 2.46 0 5 2.46 0 5 0 0 2.46 0 5 2.46 0 5 0c0 4.95 0 9.9 0 15q-2.46 0-5 0c0 7.92 0 15.84 0 24q-2.46 0-5 0c0 6.6 0 13.2 0 20-4.95 0-9.9 0-15 0 0-6.6 0-13.2 0-20q-2.46 0-5 0c0-7.92 0-15.84 0-24q-2.46 0-5 0c0-4.95 0-9.9 0-15q2.46 0 5 0 0-2.46 0-5 2.46 0 5 0 0-2.46 0-5z"/>
	<path class="s0" d="m106 173c8.25 0 16.5 0 25 0q0 2.46 0 5 2.46 0 5 0c0 4.95 0 9.9 0 15q-2.46 0-5 0 0 2.46 0 5c-8.25 0-16.5 0-25 0q0-2.46 0-5-2.46 0-5 0c0-4.95 0-9.9 0-15q2.46 0 5 0 0-2.46 0-5z"/>
</svg>