<svg version="1.2" xmlns="http://www.w3.org/2000/svg" viewBox="0 0 190 204" width="190" height="204">
	<style>
		.s0 { fill: #2a2829 } 
	</style>
	<path fill-rule="evenodd" class="s0" d="m120 18q0 2.03 0 4c4.08 0 8.04 0 12 0q0 2.03 0 4c2.72 0 5.36 0 8 0q0 2.03 0 4c2.72 0 5.36 0 8 0q0 2.03 0 4 2.03 0 4 0 0 2.03 0 4 2.54 0 5 0 0 2.03 0 4 2.03 0 4 0 0 2.03 0 4 2.03 0 4 0 0 2.03 0 4 2.03 0 4 0 0 2.54 0 5 2.03 0 4 0c0 2.72 0 5.36 0 8q2.03 0 4 0c0 2.72 0 5.36 0 8q2.03 0 4 0c0 4.08 0 8.04 0 12q2.03 0 4 0c0 15.3 0 30.15 0 45q-2.03 0-4 0c0 4.42 0 8.71 0 13q-2.03 0-4 0c0 2.72 0 5.36 0 8q-2.03 0-4 0c0 2.72 0 5.36 0 8q-2.03 0-4 0 0 2.03 0 4-2.03 0-4 0 0 2.03 0 4-2.03 0-4 0 0 2.54 0 5-2.03 0-4 0 0 2.03 0 4-2.54 0-5 0 0 2.03 0 4-2.03 0-4 0 0 2.03 0 4c-2.72 0-5.36 0-8 0q0 2.03 0 4c-2.72 0-5.36 0-8 0q0 2.03 0 4c-4.08 0-8.04 0-12 0q0 2.03 0 4c-15.64 0-30.82 0-46 0q0-2.03 0-4c-4.08 0-8.04 0-12 0q0-2.03 0-4c-2.72 0-5.36 0-8 0q0-2.03 0-4c-2.72 0-5.36 0-8 0q0-2.03 0-4-2.03 0-4 0 0-2.03 0-4-2.54 0-5 0 0-2.03 0-4-2.03 0-4 0 0-2.54 0-5-2.03 0-4 0 0-2.03 0-4-2.03 0-4 0 0-2.03 0-4-2.03 0-4 0c0-2.72 0-5.36 0-8q-2.03 0-4 0c0-2.72 0-5.36 0-8q-2.03 0-4 0c0-4.42 0-8.71 0-13q-2.03 0-4 0c0-15.3 0-30.15 0-45q2.03 0 4 0c0-4.08 0-8.04 0-12q2.03 0 4 0c0-2.72 0-5.36 0-8q2.03 0 4 0c0-2.72 0-5.36 0-8q2.03 0 4 0 0-2.54 0-5 2.03 0 4 0 0-2.03 0-4 2.03 0 4 0 0-2.03 0-4 2.03 0 4 0 0-2.03 0-4 2.54 0 5 0 0-2.03 0-4 2.03 0 4 0 0-2.03 0-4c2.72 0 5.36 0 8 0q0-2.03 0-4c2.72 0 5.36 0 8 0q0-2.03 0-4c4.08 0 8.04 0 12 0q0-2.03 0-4c15.64 0 30.82 0 46 0zm-83 57q-2.03 0-4 0c0 4.08 0 8.04 0 12q-2.03 0-4 0c0 12.58 0 24.79 0 37q2.03 0 4 0c0 4.42 0 8.71 0 13q2.03 0 4 0c0 2.72 0 5.36 0 8q2.54 0 5 0 0 2.03 0 4 2.03 0 4 0 0 2.03 0 4 2.03 0 4 0 0 2.03 0 4 2.03 0 4 0 0 2.03 0 4 2.03 0 4 0 0 2.03 0 4c2.72 0 5.36 0 8 0q0 2.54 0 5c4.42 0 8.71 0 13 0q0 2.03 0 4c12.24 0 24.12 0 36 0q0-2.03 0-4c4.42 0 8.71 0 13 0q0-2.54 0-5c2.72 0 5.36 0 8 0 0-2.72 0-5.36 0-8q-2.03 0-4 0 0-2.03 0-4-2.03 0-4 0 0-2.03 0-4-2.03 0-4 0 0-2.03 0-4-2.03 0-4 0 0-2.03 0-4-2.54 0-5 0 0-2.03 0-4-2.03 0-4 0 0-2.03 0-4-2.03 0-4 0 0-2.54 0-5-2.03 0-4 0 0-2.03 0-4c-2.72 0-5.36 0-8 0q0-2.03 0-4-2.03 0-4 0 0-2.03 0-4-2.03 0-4 0c0-2.72 0-5.36 0-8q-2.03 0-4 0 0-2.03 0-4-2.03 0-4 0 0-2.03 0-4-2.54 0-5 0 0-2.03 0-4-2.03 0-4 0 0-2.03 0-4-2.03 0-4 0 0-2.54 0-5-2.03 0-4 0 0-2.03 0-4-2.03 0-4 0 0-2.03 0-4-2.03 0-4 0 0-2.03 0-4-2.03 0-4 0 0-2.03 0-4-2.03 0-4 0 0-2.03 0-4c-3.06 0-6.03 0-9 0 0 2.72 0 5.36 0 8zm42-33c-4.42 0-8.71 0-13 0q0 2.03 0 4c-2.72 0-5.36 0-8 0 0 3.06 0 6.03 0 9q2.03 0 4 0 0 2.03 0 4 2.03 0 4 0 0 2.03 0 4 2.03 0 4 0 0 2.03 0 4 2.03 0 4 0 0 2.03 0 4 2.54 0 5 0 0 2.03 0 4 2.03 0 4 0 0 2.03 0 4 2.03 0 4 0 0 2.03 0 4 2.03 0 4 0 0 2.03 0 4 2.03 0 4 0 0 2.54 0 5c2.72 0 5.36 0 8 0q0 2.03 0 4 2.03 0 4 0 0 2.03 0 4 2.03 0 4 0 0 2.03 0 4 2.03 0 4 0 0 2.03 0 4 2.54 0 5 0c0 2.72 0 5.36 0 8q2.03 0 4 0 0 2.03 0 4 2.03 0 4 0 0 2.03 0 4 2.03 0 4 0 0 2.03 0 4 2.03 0 4 0 0 2.54 0 5 2.03 0 4 0 0 2.03 0 4 2.03 0 4 0 0 2.03 0 4 2.03 0 4 0 0 2.03 0 4c3.06 0 6.03 0 9 0 0-2.72 0-5.36 0-8q2.03 0 4 0c0-4.42 0-8.71 0-13q2.03 0 4 0c0-12.58 0-24.79 0-37q-2.03 0-4 0c0-4.08 0-8.04 0-12q-2.03 0-4 0c0-2.72 0-5.36 0-8q-2.54 0-5 0 0-2.03 0-4-2.03 0-4 0 0-2.03 0-4-2.03 0-4 0 0-2.03 0-4-2.03 0-4 0 0-2.54 0-5-2.03 0-4 0 0-2.03 0-4c-2.72 0-5.36 0-8 0q0-2.03 0-4c-4.42 0-8.71 0-13 0q0-2.03 0-4c-12.24 0-24.12 0-36 0q0 2.03 0 4z"/>
</svg>