<svg version="1.2" xmlns="http://www.w3.org/2000/svg" viewBox="0 0 168 168" width="168" height="168">
	<style>
		.s0 { fill: #2a2829 } 
	</style>
	<path fill-rule="evenodd" class="s0" d="m48 8c7.92 0 15.84 0 24 0q0 1.48 0 3 2.96 0 6 0 0 1.48 0 3 2.96 0 6 0 0 1.48 0 3 2.95 0 6 0 0 1.48 0 3 1.48 0 3 0 0 1.48 0 3 1.48 0 3 0 0 1.48 0 3 1.48 0 3 0 0 1.48 0 3 1.48 0 3 0 0 1.48 0 3 1.48 0 3 0 0 2.95 0 6 1.48 0 3 0 0 2.95 0 6 1.48 0 3 0c0 2.97 0 5.94 0 9q1.48 0 3 0c0 7.92 0 15.84 0 24q-1.48 0-3 0 0 2.95 0 6-1.48 0-3 0 0 2.46 0 5-1.48 0-3 0 0 1.48 0 3 1.48 0 3 0 0 1.48 0 3 1.48 0 3 0 0 1.48 0 3 1.48 0 3 0 0 1.48 0 3 1.48 0 3 0 0 1.48 0 3 1.48 0 3 0 0 1.48 0 3 1.48 0 3 0 0 1.48 0 3 1.48 0 3 0 0 1.48 0 3 1.48 0 3 0 0 1.48 0 3 1.48 0 3 0 0 1.48 0 3 1.48 0 3 0 0 1.48 0 3 1.48 0 3 0 0 1.48 0 3 0.99 0 2 0 0 1.48 0 3 1.48 0 3 0 0 1.48 0 3 1.48 0 3 0 0 1.48 0 3 1.48 0 3 0 0 1.48 0 3 1.48 0 3 0 0 1.48 0 3 1.48 0 3 0 0 1.48 0 3 1.48 0 3 0 0 1.48 0 3 1.48 0 3 0c0 2.97 0 5.94 0 9q-1.48 0-3 0 0 1.48 0 3-1.48 0-3 0 0 1.48 0 3-1.48 0-3 0 0 0.99 0 2-2.95 0-6 0 0 1.48 0 3c-2.64 0-5.28 0-8 0q0-1.48 0-3-2.95 0-6 0 0-0.99 0-2-1.48 0-3 0 0-1.48 0-3-1.48 0-3 0 0-1.48 0-3-1.48 0-3 0 0-1.48 0-3-1.48 0-3 0 0-1.48 0-3-1.48 0-3 0 0-1.48 0-3-1.48 0-3 0 0-1.48 0-3-1.48 0-3 0 0-1.48 0-3-1.48 0-3 0 0-1.48 0-3-1.48 0-3 0 0-1.48 0-3-1.48 0-3 0 0-1.48 0-3-1.48 0-3 0 0-1.48 0-3-1.48 0-3 0 0-1.48 0-3-1.48 0-3 0 0-1.48 0-3-1.48 0-3 0 0-1.48 0-3-1.48 0-3 0 0-1.48 0-3-1.48 0-3 0 0-1.48 0-3-2.95 0-6 0 0 1.48 0 3-2.96 0-6 0 0 1.48 0 3c-7.92 0-15.84 0-24 0q0-1.48 0-3c-2.97 0-5.94 0-9 0q0-1.48 0-3-2.95 0-6 0 0-1.48 0-3-2.95 0-6 0 0-1.48 0-3-1.48 0-3 0 0-1.48 0-3-1.48 0-3 0 0-1.48 0-3-0.98 0-2 0 0-1.48 0-3-1.48 0-3 0 0-1.48 0-3-1.48 0-3 0 0-2.95 0-6-1.48 0-3 0 0-2.46 0-5-1.48 0-3 0 0-2.95 0-6-1.48 0-3 0c0-7.92 0-15.84 0-24q1.48 0 3 0c0-2.97 0-5.94 0-9q1.48 0 3 0 0-2.95 0-6 1.48 0 3 0 0-2.95 0-6 1.48 0 3 0 0-1.48 0-3 1.48 0 3 0 0-1.48 0-3 0.98 0 2 0 0-1.48 0-3 1.48 0 3 0 0-1.48 0-3 1.48 0 3 0 0-1.48 0-3 2.95 0 6 0 0-1.48 0-3 2.95 0 6 0 0-1.48 0-3c2.97 0 5.94 0 9 0q0-1.48 0-3zm3 24c-3.06 0-6.03 0-9 0q0 1.52 0 3-1.52 0-3 0 0 1.52 0 3-1.52 0-3 0 0 1.52 0 3-1.52 0-3 0 0 1.52 0 3-1.52 0-3 0 0 1.52 0 3-1.52 0-3 0c0 3.06 0 6.03 0 9q-1.52 0-3 0c0 6.12 0 12.06 0 18q1.52 0 3 0 0 3.05 0 6 1.52 0 3 0 0 1.52 0 3 1.52 0 3 0 0 1.02 0 2 1.52 0 3 0 0 1.52 0 3 1.52 0 3 0 0 1.52 0 3 1.52 0 3 0 0 1.52 0 3c3.06 0 6.03 0 9 0q0 1.52 0 3c6.12 0 12.06 0 18 0q0-1.52 0-3 3.04 0 6 0 0-1.52 0-3 1.52 0 3 0 0-1.52 0-3 1.52 0 3 0 0-1.52 0-3 1.52 0 3 0 0-1.02 0-2 1.52 0 3 0 0-1.52 0-3 1.52 0 3 0 0-3.05 0-6 1.52 0 3 0c0-6.12 0-12.06 0-18q-1.52 0-3 0c0-3.06 0-6.03 0-9q-1.52 0-3 0 0-1.52 0-3-1.52 0-3 0 0-1.52 0-3-1.52 0-3 0 0-1.52 0-3-1.52 0-3 0 0-1.52 0-3-1.52 0-3 0 0-1.52 0-3-3.04 0-6 0 0-1.52 0-3c-6.12 0-12.06 0-18 0q0 1.52 0 3z"/>
</svg>