<svg version="1.1" xmlns="http://www.w3.org/2000/svg" viewBox="0 0 240 248" preserveAspectRatio="xMidYMid meet" xmlns:xlink="http://www.w3.org/1999/xlink" xmlns:svgjs="http://svgjs.dev/svgjs">

<path d="M0 0 C7.92 0 15.84 0 24 0 C24 0.99 24 1.98 24 3 C25.98 3 27.96 3 30 3 C30 3.99 30 4.98 30 6 C31.98 6 33.96 6 36 6 C36 6.99 36 7.98 36 9 C37.98 9 39.96 9 42 9 C42 9.99 42 10.98 42 12 C42.99 12 43.98 12 45 12 C45 12.99 45 13.98 45 15 C45.99 15 46.98 15 48 15 C48 15.99 48 16.98 48 18 C48.99 18 49.98 18 51 18 C51 18.99 51 19.98 51 21 C51.99 21 52.98 21 54 21 C54 21.99 54 22.98 54 24 C54.99 24 55.98 24 57 24 C57 25.98 57 27.96 57 30 C57.99 30 58.98 30 60 30 C60 31.98 60 33.96 60 36 C60.99 36 61.98 36 63 36 C63 38.97 63 41.94 63 45 C63.99 45 64.98 45 66 45 C66 52.92 66 60.84 66 69 C65.01 69 64.02 69 63 69 C63 70.98 63 72.96 63 75 C62.01 75 61.02 75 60 75 C60 76.65 60 78.3 60 80 C59.01 80 58.02 80 57 80 C57 80.99 57 81.98 57 83 C57.99 83 58.98 83 60 83 C60 83.99 60 84.98 60 86 C60.99 86 61.98 86 63 86 C63 86.99 63 87.98 63 89 C63.99 89 64.98 89 66 89 C66 89.99 66 90.98 66 92 C66.99 92 67.98 92 69 92 C69 92.99 69 93.98 69 95 C69.99 95 70.98 95 72 95 C72 95.99 72 96.98 72 98 C72.99 98 73.98 98 75 98 C75 98.99 75 99.98 75 101 C75.99 101 76.98 101 78 101 C78 101.99 78 102.98 78 104 C78.99 104 79.98 104 81 104 C81 104.99 81 105.98 81 107 C81.99 107 82.98 107 84 107 C84 107.99 84 108.98 84 110 C84.99 110 85.98 110 87 110 C87 110.99 87 111.98 87 113 C87.99 113 88.98 113 90 113 C90 113.99 90 114.98 90 116 C90.66 116 91.32 116 92 116 C92 116.99 92 117.98 92 119 C92.99 119 93.98 119 95 119 C95 119.99 95 120.98 95 122 C95.99 122 96.98 122 98 122 C98 122.99 98 123.98 98 125 C98.99 125 99.98 125 101 125 C101 125.99 101 126.98 101 128 C101.99 128 102.98 128 104 128 C104 128.99 104 129.98 104 131 C104.99 131 105.98 131 107 131 C107 131.99 107 132.98 107 134 C107.99 134 108.98 134 110 134 C110 134.99 110 135.98 110 137 C110.99 137 111.98 137 113 137 C113 139.97 113 142.94 113 146 C112.01 146 111.02 146 110 146 C110 146.99 110 147.98 110 149 C109.01 149 108.02 149 107 149 C107 149.99 107 150.98 107 152 C106.01 152 105.02 152 104 152 C104 152.66 104 153.32 104 154 C102.02 154 100.04 154 98 154 C98 154.99 98 155.98 98 157 C95.36 157 92.72 157 90 157 C90 156.01 90 155.02 90 154 C88.02 154 86.04 154 84 154 C84 153.34 84 152.68 84 152 C83.01 152 82.02 152 81 152 C81 151.01 81 150.02 81 149 C80.01 149 79.02 149 78 149 C78 148.01 78 147.02 78 146 C77.01 146 76.02 146 75 146 C75 145.01 75 144.02 75 143 C74.01 143 73.02 143 72 143 C72 142.01 72 141.02 72 140 C71.01 140 70.02 140 69 140 C69 139.01 69 138.02 69 137 C68.01 137 67.02 137 66 137 C66 136.01 66 135.02 66 134 C65.01 134 64.02 134 63 134 C63 133.01 63 132.02 63 131 C62.01 131 61.02 131 60 131 C60 130.01 60 129.02 60 128 C59.01 128 58.02 128 57 128 C57 127.01 57 126.02 57 125 C56.01 125 55.02 125 54 125 C54 124.01 54 123.02 54 122 C53.01 122 52.02 122 51 122 C51 121.01 51 120.02 51 119 C50.01 119 49.02 119 48 119 C48 118.01 48 117.02 48 116 C47.01 116 46.02 116 45 116 C45 115.01 45 114.02 45 113 C44.01 113 43.02 113 42 113 C42 112.01 42 111.02 42 110 C41.01 110 40.02 110 39 110 C39 109.01 39 108.02 39 107 C38.01 107 37.02 107 36 107 C36 106.01 36 105.02 36 104 C34.02 104 32.04 104 30 104 C30 104.99 30 105.98 30 107 C28.02 107 26.04 107 24 107 C24 107.99 24 108.98 24 110 C16.08 110 8.16 110 0 110 C0 109.01 0 108.02 0 107 C-2.97 107 -5.94 107 -9 107 C-9 106.01 -9 105.02 -9 104 C-10.98 104 -12.96 104 -15 104 C-15 103.01 -15 102.02 -15 101 C-16.98 101 -18.96 101 -21 101 C-21 100.01 -21 99.02 -21 98 C-21.99 98 -22.98 98 -24 98 C-24 97.01 -24 96.02 -24 95 C-24.99 95 -25.98 95 -27 95 C-27 94.01 -27 93.02 -27 92 C-27.66 92 -28.32 92 -29 92 C-29 91.01 -29 90.02 -29 89 C-29.99 89 -30.98 89 -32 89 C-32 88.01 -32 87.02 -32 86 C-32.99 86 -33.98 86 -35 86 C-35 84.02 -35 82.04 -35 80 C-35.99 80 -36.98 80 -38 80 C-38 78.35 -38 76.7 -38 75 C-38.99 75 -39.98 75 -41 75 C-41 73.02 -41 71.04 -41 69 C-41.99 69 -42.98 69 -44 69 C-44 61.08 -44 53.16 -44 45 C-43.01 45 -42.02 45 -41 45 C-41 42.03 -41 39.06 -41 36 C-40.01 36 -39.02 36 -38 36 C-38 34.02 -38 32.04 -38 30 C-37.01 30 -36.02 30 -35 30 C-35 28.02 -35 26.04 -35 24 C-34.01 24 -33.02 24 -32 24 C-32 23.01 -32 22.02 -32 21 C-31.01 21 -30.02 21 -29 21 C-29 20.01 -29 19.02 -29 18 C-28.34 18 -27.68 18 -27 18 C-27 17.01 -27 16.02 -27 15 C-26.01 15 -25.02 15 -24 15 C-24 14.01 -24 13.02 -24 12 C-23.01 12 -22.02 12 -21 12 C-21 11.01 -21 10.02 -21 9 C-19.02 9 -17.04 9 -15 9 C-15 8.01 -15 7.02 -15 6 C-13.02 6 -11.04 6 -9 6 C-9 5.01 -9 4.02 -9 3 C-6.03 3 -3.06 3 0 3 C0 2.01 0 1.02 0 0 Z " fill="#2A2829" transform="translate(86,46)"></path>
<path d="M0 0 C5.94 0 11.88 0 18 0 C18 0.99 18 1.98 18 3 C19.98 3 21.96 3 24 3 C24 3.99 24 4.98 24 6 C24.99 6 25.98 6 27 6 C27 6.99 27 7.98 27 9 C27.99 9 28.98 9 30 9 C30 9.99 30 10.98 30 12 C30.99 12 31.98 12 33 12 C33 12.99 33 13.98 33 15 C33.99 15 34.98 15 36 15 C36 15.99 36 16.98 36 18 C36.99 18 37.98 18 39 18 C39 20.97 39 23.94 39 27 C39.99 27 40.98 27 42 27 C42 32.94 42 38.88 42 45 C41.01 45 40.02 45 39 45 C39 46.98 39 48.96 39 51 C38.01 51 37.02 51 36 51 C36 51.99 36 52.98 36 54 C35.01 54 34.02 54 33 54 C33 54.66 33 55.32 33 56 C32.01 56 31.02 56 30 56 C30 56.99 30 57.98 30 59 C29.01 59 28.02 59 27 59 C27 59.99 27 60.98 27 62 C26.01 62 25.02 62 24 62 C24 62.99 24 63.98 24 65 C22.02 65 20.04 65 18 65 C18 65.99 18 66.98 18 68 C12.06 68 6.12 68 0 68 C0 67.01 0 66.02 0 65 C-2.97 65 -5.94 65 -9 65 C-9 64.01 -9 63.02 -9 62 C-9.99 62 -10.98 62 -12 62 C-12 61.01 -12 60.02 -12 59 C-12.99 59 -13.98 59 -15 59 C-15 58.01 -15 57.02 -15 56 C-15.99 56 -16.98 56 -18 56 C-18 55.34 -18 54.68 -18 54 C-18.99 54 -19.98 54 -21 54 C-21 53.01 -21 52.02 -21 51 C-21.99 51 -22.98 51 -24 51 C-24 49.02 -24 47.04 -24 45 C-24.99 45 -25.98 45 -27 45 C-27 39.06 -27 33.12 -27 27 C-26.01 27 -25.02 27 -24 27 C-24 24.03 -24 21.06 -24 18 C-23.01 18 -22.02 18 -21 18 C-21 17.01 -21 16.02 -21 15 C-20.01 15 -19.02 15 -18 15 C-18 14.01 -18 13.02 -18 12 C-17.01 12 -16.02 12 -15 12 C-15 11.01 -15 10.02 -15 9 C-14.01 9 -13.02 9 -12 9 C-12 8.01 -12 7.02 -12 6 C-11.01 6 -10.02 6 -9 6 C-9 5.01 -9 4.02 -9 3 C-6.03 3 -3.06 3 0 3 C0 2.01 0 1.02 0 0 Z " fill="#FEFEFE" transform="translate(89,67)"></path>
</svg>