<svg version="1.1" xmlns="http://www.w3.org/2000/svg" viewBox="0 0 192 194" preserveAspectRatio="xMidYMid meet" xmlns:xlink="http://www.w3.org/1999/xlink" xmlns:svgjs="http://svgjs.dev/svgjs">

<path d="M0 0 C2.64 0 5.28 0 8 0 C8 7.92 8 15.84 8 24 C9.32 24 10.64 24 12 24 C12 37.86 12 51.72 12 66 C13.32 66 14.64 66 16 66 C16 72.6 16 79.2 16 86 C17.32 86 18.64 86 20 86 C20 87.32 20 88.64 20 90 C21.65 90 23.3 90 25 90 C25 91.32 25 92.64 25 94 C26.32 94 27.64 94 29 94 C29 100.93 29 107.86 29 115 C27.68 115 26.36 115 25 115 C25 117.64 25 120.28 25 123 C23.35 123 21.7 123 20 123 C20 124.32 20 125.64 20 127 C18.68 127 17.36 127 16 127 C16 128.65 16 130.3 16 132 C13.36 132 10.72 132 8 132 C8 133.32 8 134.64 8 136 C0.08 136 -7.84 136 -16 136 C-16 134.68 -16 133.36 -16 132 C-17.65 132 -19.3 132 -21 132 C-21 130.35 -21 128.7 -21 127 C-22.32 127 -23.64 127 -25 127 C-25 121.72 -25 116.44 -25 111 C-23.68 111 -22.36 111 -21 111 C-21 108.36 -21 105.72 -21 103 C-19.35 103 -17.7 103 -16 103 C-16 100.03 -16 97.06 -16 94 C-14.68 94 -13.36 94 -12 94 C-12 92.68 -12 91.36 -12 90 C-9.36 90 -6.72 90 -4 90 C-4 88.68 -4 87.36 -4 86 C-0.04 86 3.92 86 8 86 C8 80.72 8 75.44 8 70 C5.36 70 2.72 70 0 70 C0 57.79 0 45.58 0 33 C-3.96 33 -7.92 33 -12 33 C-12 34.32 -12 35.64 -12 37 C-16.29 37 -20.58 37 -25 37 C-25 38.32 -25 39.64 -25 41 C-27.64 41 -30.28 41 -33 41 C-33 42.32 -33 43.64 -33 45 C-36.96 45 -40.92 45 -45 45 C-45 46.32 -45 47.64 -45 49 C-47.64 49 -50.28 49 -53 49 C-53 61.21 -53 73.42 -53 86 C-51.68 86 -50.36 86 -49 86 C-49 95.57 -49 105.14 -49 115 C-47.68 115 -46.36 115 -45 115 C-45 116.32 -45 117.64 -45 119 C-43.68 119 -42.36 119 -41 119 C-41 124.61 -41 130.22 -41 136 C-42.32 136 -43.64 136 -45 136 C-45 138.64 -45 141.28 -45 144 C-46.32 144 -47.64 144 -49 144 C-49 145.32 -49 146.64 -49 148 C-50.32 148 -51.64 148 -53 148 C-53 149.32 -53 150.64 -53 152 C-55.97 152 -58.94 152 -62 152 C-62 153.32 -62 154.64 -62 156 C-68.6 156 -75.2 156 -82 156 C-82 154.68 -82 153.36 -82 152 C-83.32 152 -84.64 152 -86 152 C-86 150.68 -86 149.36 -86 148 C-87.32 148 -88.64 148 -90 148 C-90 142.72 -90 137.44 -90 132 C-88.68 132 -87.36 132 -86 132 C-86 129.03 -86 126.06 -86 123 C-84.68 123 -83.36 123 -82 123 C-82 121.68 -82 120.36 -82 119 C-80.68 119 -79.36 119 -78 119 C-78 117.68 -78 116.36 -78 115 C-75.36 115 -72.72 115 -70 115 C-70 113.68 -70 112.36 -70 111 C-66.04 111 -62.08 111 -58 111 C-58 104.07 -58 97.14 -58 90 C-59.32 90 -60.64 90 -62 90 C-62 77.79 -62 65.58 -62 53 C-63.32 53 -64.64 53 -66 53 C-66 43.43 -66 33.86 -66 24 C-63.36 24 -60.72 24 -58 24 C-58 22.68 -58 21.36 -58 20 C-53.71 20 -49.42 20 -45 20 C-45 18.68 -45 17.36 -45 16 C-41.04 16 -37.08 16 -33 16 C-33 14.68 -33 13.36 -33 12 C-30.36 12 -27.72 12 -25 12 C-25 10.68 -25 9.36 -25 8 C-20.71 8 -16.42 8 -12 8 C-12 6.68 -12 5.36 -12 4 C-8.04 4 -4.08 4 0 4 C0 2.68 0 1.36 0 0 Z " fill="#2B292A" transform="translate(94,6)"></path>
<path d="M0 0 C2.97 0 5.94 0 9 0 C9 1.32 9 2.64 9 4 C10.32 4 11.64 4 13 4 C13 5.32 13 6.64 13 8 C15.64 8 18.28 8 21 8 C21 9.65 21 11.3 21 13 C22.32 13 23.64 13 25 13 C25 14.32 25 15.64 25 17 C26.32 17 27.64 17 29 17 C29 18.32 29 19.64 29 21 C30.32 21 31.64 21 33 21 C33 23.64 33 26.28 33 29 C34.32 29 35.64 29 37 29 C37 31.64 37 34.28 37 37 C38.32 37 39.64 37 41 37 C41 47.89 41 58.78 41 70 C39.68 70 38.36 70 37 70 C37 72.97 37 75.94 37 79 C35.68 79 34.36 79 33 79 C33 80.32 33 81.64 33 83 C30.36 83 27.72 83 25 83 C25 84.32 25 85.64 25 87 C22.36 87 19.72 87 17 87 C17 85.68 17 84.36 17 83 C18.32 83 19.64 83 21 83 C21 81.68 21 80.36 21 79 C22.32 79 23.64 79 25 79 C25 77.35 25 75.7 25 74 C26.32 74 27.64 74 29 74 C29 68.72 29 63.44 29 58 C27.68 58 26.36 58 25 58 C25 55.36 25 52.72 25 50 C23.68 50 22.36 50 21 50 C21 47.03 21 44.06 21 41 C18.36 41 15.72 41 13 41 C13 39.68 13 38.36 13 37 C11.68 37 10.36 37 9 37 C9 46.57 9 56.14 9 66 C7.35 66 5.7 66 4 66 C4 82.5 4 99 4 116 C2.68 116 1.36 116 0 116 C0 117.32 0 118.64 0 120 C-1.32 120 -2.64 120 -4 120 C-4 121.32 -4 122.64 -4 124 C-5.32 124 -6.64 124 -8 124 C-8 125.32 -8 126.64 -8 128 C-10.64 128 -13.28 128 -16 128 C-16 129.32 -16 130.64 -16 132 C-24.25 132 -32.5 132 -41 132 C-41 130.68 -41 129.36 -41 128 C-42.32 128 -43.64 128 -45 128 C-45 126.68 -45 125.36 -45 124 C-47.64 124 -50.28 124 -53 124 C-53 117.07 -53 110.14 -53 103 C-50.36 103 -47.72 103 -45 103 C-45 101.68 -45 100.36 -45 99 C-43.68 99 -42.36 99 -41 99 C-41 97.68 -41 96.36 -41 95 C-39.68 95 -38.36 95 -37 95 C-37 93.68 -37 92.36 -37 91 C-34.03 91 -31.06 91 -28 91 C-28 89.68 -28 88.36 -28 87 C-22.72 87 -17.44 87 -12 87 C-12 88.32 -12 89.64 -12 91 C-9.36 91 -6.72 91 -4 91 C-4 81.43 -4 71.86 -4 62 C-2.68 62 -1.36 62 0 62 C0 41.54 0 21.08 0 0 Z " fill="#2B292A" transform="translate(147,59)"></path>
</svg>