<svg version="1.2" xmlns="http://www.w3.org/2000/svg" viewBox="0 0 206 206" width="206" height="206">
	<style>
		.s0 { fill: #2b2829 } 
	</style>
	<path fill-rule="evenodd" class="s0" d="m154 9c7.92 0 15.84 0 24 0q0 1.97 0 4c2.31 0 4.62 0 7 0q0 1.48 0 3 1.97 0 4 0c0 2.31 0 4.62 0 7q1.48 0 3 0c0 6.93 0 13.86 0 21q-1.48 0-3 0c0 2.31 0 4.62 0 7q-1.97 0-4 0 0 1.97 0 4-1.48 0-3 0 0 1.48 0 3-1.97 0-4 0 0 1.97 0 4-1.48 0-3 0 0 1.48 0 3-1.97 0-4 0 0 1.48 0 3 1.97 0 4 0 0 1.97 0 4 1.48 0 3 0 0 1.48 0 3 1.97 0 4 0 0 1.97 0 4 1.48 0 3 0 0 1.48 0 3 1.97 0 4 0 0 1.97 0 4 1.48 0 3 0 0 1.48 0 3 1.97 0 4 0c0 5.94 0 11.88 0 18q-1.97 0-4 0c0 2.31 0 4.62 0 7q-1.48 0-3 0c0 2.31 0 4.62 0 7q-1.97 0-4 0c0 3.3 0 6.6 0 10q-1.48 0-3 0c0 2.31 0 4.62 0 7q-1.97 0-4 0c0 2.31 0 4.62 0 7q-1.48 0-3 0c0 2.31 0 4.62 0 7q-1.97 0-4 0c0 2.31 0 4.62 0 7q-1.48 0-3 0c0 2.31 0 4.62 0 7q-1.97 0-4 0c0 2.31 0 4.62 0 7q-1.48 0-3 0 0 1.48 0 3-1.97 0-4 0 0 1.97 0 4-1.48 0-3 0 0 1.48 0 3-1.97 0-4 0 0 1.97 0 4c-3.3 0-6.6 0-10 0 0-2.31 0-4.62 0-7q-1.97 0-4 0 0 1.48 0 3-1.48 0-3 0 0 1.97 0 4-1.97 0-4 0 0 1.48 0 3-1.48 0-3 0 0 1.97 0 4-1.97 0-4 0 0 1.48 0 3c-20.79 0-41.58 0-63 0q0-1.48 0-3-1.48 0-3 0 0-1.97 0-4-1.97 0-4 0 0-1.48 0-3c-6.93 0-13.86 0-21 0 0-5.94 0-11.88 0-18-2.31 0-4.62 0-7 0q0-1.48 0-3c-3.3 0-6.6 0-10 0q0-1.97 0-4c-2.31 0-4.62 0-7 0 0-2.31 0-4.62 0-7 2.31 0 4.62 0 7 0q0-1.48 0-3c3.3 0 6.6 0 10 0q0-1.97 0-4c3.63 0 7.26 0 11 0q0-1.48 0-3c3.3 0 6.6 0 10 0q0-1.97 0-4-1.48 0-3 0 0-2.95 0-6 1.48 0 3 0 0-1.97 0-4 1.97 0 4 0 0-1.48 0-3 1.48 0 3 0 0-1.97 0-4 1.97 0 4 0 0-1.48 0-3 1.48 0 3 0c0-2.31 0-4.62 0-7q1.97 0 4 0 0-1.97 0-4 1.48 0 3 0c0-2.31 0-4.62 0-7q1.97 0 4 0c0-2.31 0-4.62 0-7q1.48 0 3 0c0-2.31 0-4.62 0-7q1.97 0 4 0c0-2.31 0-4.62 0-7q1.48 0 3 0c0-2.31 0-4.62 0-7q1.97 0 4 0c0-2.31 0-4.62 0-7q1.48 0 3 0 0-2.95 0-6 1.97 0 4 0c0-2.31 0-4.62 0-7q1.48 0 3 0 0-1.97 0-4c12.87 0 25.74 0 39 0q0-1.48 0-3 1.48 0 3 0c0-2.31 0-4.62 0-7q1.97 0 4 0c0-3.63 0-7.26 0-11q1.48 0 3 0c0-2.31 0-4.62 0-7q1.97 0 4 0c0-2.31 0-4.62 0-7q1.48 0 3 0 0-1.48 0-3 1.97 0 4 0 0-1.97 0-4zm-67 87q-1.52 0-3 0c0 2.38 0 4.69 0 7q-2.03 0-4 0c0 2.38 0 4.69 0 7q-1.52 0-3 0c0 2.38 0 4.69 0 7q-2.03 0-4 0c0 2.38 0 4.69 0 7q-1.52 0-3 0 0 2.03 0 4-2.03 0-4 0 0 1.52 0 3-1.52 0-3 0 0 2.03 0 4c4.76 0 9.38 0 14 0q0 1.52 0 3 1.52 0 3 0c0 2.38 0 4.69 0 7q2.03 0 4 0c0 2.38 0 4.69 0 7 7.14 0 14.07 0 21 0q0 1.52 0 3 1.52 0 3 0c0 3.74 0 7.37 0 11 7.14 0 14.07 0 21 0q0-2.03 0-4 2.03 0 4 0 0-1.52 0-3 1.52 0 3 0 0-2.03 0-4 2.03 0 4 0c0-2.38 0-4.69 0-7q1.52 0 3 0c0-2.38 0-4.69 0-7q2.03 0 4 0 0-3.05 0-6c2.38 0 4.69 0 7 0 0 4.42 0 8.71 0 13q-2.03 0-4 0c0 3.74 0 7.37 0 11q-1.52 0-3 0c0 4.76 0 9.38 0 14q1.52 0 3 0 0-2.03 0-4 2.03 0 4 0c0-2.38 0-4.69 0-7q1.52 0 3 0c0-2.38 0-4.69 0-7q2.03 0 4 0c0-2.38 0-4.69 0-7q1.52 0 3 0c0-3.4 0-6.7 0-10q2.03 0 4 0c0-2.38 0-4.69 0-7-2.38 0-4.69 0-7 0q0-1.52 0-3c-2.38 0-4.69 0-7 0q0-2.03 0-4c-2.38 0-4.69 0-7 0q0-1.52 0-3c-2.38 0-4.69 0-7 0q0-2.03 0-4c-2.38 0-4.69 0-7 0q0-1.52 0-3c-2.38 0-4.69 0-7 0q0-2.03 0-4c-2.38 0-4.69 0-7 0q0-1.52 0-3c-2.38 0-4.69 0-7 0q0-2.03 0-4c-2.38 0-4.69 0-7 0q0-1.52 0-3c-2.38 0-4.69 0-7 0q0-2.03 0-4c-2.38 0-4.69 0-7 0q0-1.52 0-3-2.03 0-4 0 0 1.52 0 3zm74-73q-2.03 0-4 0c0 2.38 0 4.69 0 7q-1.52 0-3 0c0 2.38 0 4.69 0 7q-2.03 0-4 0c0 3.74 0 7.37 0 11q-1.52 0-3 0c0 2.38 0 4.69 0 7q-2.03 0-4 0c0 2.38 0 4.69 0 7-12.92 0-25.46 0-38 0q0 1.52 0 3-2.03 0-4 0c0 2.38 0 4.69 0 7 2.38 0 4.69 0 7 0q0 1.52 0 3c2.38 0 4.69 0 7 0q0 2.03 0 4c2.38 0 4.69 0 7 0q0 1.52 0 3c2.38 0 4.69 0 7 0q0 2.03 0 4c2.38 0 4.69 0 7 0q0 1.52 0 3c2.38 0 4.69 0 7 0q0 2.03 0 4c2.38 0 4.69 0 7 0q0 1.52 0 3c2.38 0 4.69 0 7 0q0 2.03 0 4c2.38 0 4.69 0 7 0q0 1.52 0 3c2.38 0 4.69 0 7 0q0 2.03 0 4c2.38 0 4.69 0 7 0q0 1.52 0 3 2.03 0 4 0c0-2.38 0-4.69 0-7q1.52 0 3 0c0-2.38 0-4.69 0-7q-1.52 0-3 0 0-1.52 0-3-2.03 0-4 0 0-2.03 0-4-1.52 0-3 0 0-1.52 0-3-2.03 0-4 0 0-2.03 0-4-1.52 0-3 0 0-1.52 0-3-2.03 0-4 0 0-2.03 0-4-1.52 0-3 0 0-1.52 0-3-2.03 0-4 0c0-3.4 0-6.7 0-10q2.03 0 4 0 0-2.03 0-4 1.52 0 3 0 0-1.52 0-3 2.03 0 4 0 0-2.03 0-4 1.52 0 3 0 0-1.52 0-3 2.03 0 4 0 0-2.03 0-4 1.52 0 3 0c0-2.38 0-4.69 0-7q2.03 0 4 0c0-3.4 0-6.7 0-10q-2.03 0-4 0 0-2.03 0-4-1.52 0-3 0 0-1.52 0-3c-4.76 0-9.38 0-14 0q0 1.52 0 3zm-67 63c2.38 0 4.69 0 7 0q0 1.52 0 3c2.38 0 4.69 0 7 0q0 2.03 0 4c2.38 0 4.69 0 7 0q0 1.52 0 3 2.03 0 4 0 0 2.03 0 4c2.38 0 4.69 0 7 0q0 1.52 0 3c2.38 0 4.69 0 7 0q0 2.03 0 4c2.38 0 4.69 0 7 0q0 1.52 0 3c2.38 0 4.69 0 7 0q0 2.03 0 4c2.38 0 4.69 0 7 0q0 1.52 0 3c2.38 0 4.69 0 7 0q0 2.03 0 4c2.38 0 4.69 0 7 0q0 1.52 0 3c2.38 0 4.69 0 7 0 0-2.38 0-4.69 0-7-2.38 0-4.69 0-7 0q0-1.52 0-3c-2.38 0-4.69 0-7 0q0-2.03 0-4c-2.38 0-4.69 0-7 0q0-1.52 0-3c-2.38 0-4.69 0-7 0q0-2.03 0-4c-2.38 0-4.69 0-7 0q0-1.52 0-3-2.03 0-4 0 0-2.03 0-4c-2.38 0-4.69 0-7 0q0-1.52 0-3c-2.38 0-4.69 0-7 0q0-2.03 0-4c-2.38 0-4.69 0-7 0q0-1.52 0-3c-2.38 0-4.69 0-7 0q0-2.03 0-4c-2.38 0-4.69 0-7 0q0-1.52 0-3c-2.38 0-4.69 0-7 0 0 2.38 0 4.69 0 7zm18 28c2.31 0 4.62 0 7 0 0 3.3 0 6.6 0 10q-1.97 0-4 0c0 2.31 0 4.62 0 7q-1.48 0-3 0 0 1.97 0 4-1.97 0-4 0 0 1.48 0 3-1.48 0-3 0 0 1.48 0 3-1.97 0-4 0 0 1.97 0 4c-3.3 0-6.6 0-10 0 0-2.31 0-4.62 0-7 2.31 0 4.62 0 7 0q0-1.48 0-3 1.48 0 3 0 0-1.97 0-4 1.97 0 4 0 0-1.48 0-3 1.48 0 3 0c0-2.31 0-4.62 0-7q1.97 0 4 0c0-2.31 0-4.62 0-7z"/>
</svg>