<svg version="1.2" xmlns="http://www.w3.org/2000/svg" viewBox="0 0 240 214" width="240" height="214">
	<style>
		.s0 { fill: #2a2829 } 
		.s1 { fill: #2a2929 } 
	</style>
	<path class="s0" d="m22 13c40.59 0 81.18 0 123 0q0 1.97 0 4c2.31 0 4.62 0 7 0q0 1.48 0 3 1.48 0 3 0c0 2.31 0 4.62 0 7q1.97 0 4 0c0 29.04 0 58.08 0 88q-1.97 0-4 0c0 2.31 0 4.62 0 7q-1.48 0-3 0 0 1.48 0 3c-2.31 0-4.62 0-7 0q0 1.97 0 4c-23.1 0-46.2 0-70 0q0 1.48 0 3-1.97 0-4 0 0 1.97 0 4c-2.31 0-4.62 0-7 0q0 1.48 0 3-1.48 0-3 0 0 1.97 0 4-1.97 0-4 0 0 1.48 0 3c-2.31 0-4.62 0-7 0q0 1.97 0 4-1.48 0-3 0 0 1.48 0 3-1.97 0-4 0 0 1.97 0 4c-2.31 0-4.62 0-7 0q0 1.48 0 3-1.48 0-3 0 0 1.97 0 4c-2.31 0-4.62 0-7 0 0-6.93 0-13.86 0-21q1.48 0 3 0c0-4.62 0-9.24 0-14-2.31 0-4.62 0-7 0q0-1.97 0-4c-2.31 0-4.62 0-7 0q0-1.48 0-3-1.48 0-3 0c0-2.31 0-4.62 0-7q-1.97 0-4 0c0-29.04 0-58.08 0-88q1.97 0 4 0c0-2.31 0-4.62 0-7q1.48 0 3 0 0-1.48 0-3c2.31 0 4.62 0 7 0q0-1.97 0-4zm7 14q0 1.97 0 4-1.48 0-3 0 0 1.48 0 3-1.97 0-4 0c0 24.42 0 48.84 0 74q1.97 0 4 0 0 1.48 0 3 1.48 0 3 0 0 1.97 0 4c5.94 0 11.88 0 18 0 0 3.3 0 6.6 0 10q-1.97 0-4 0c0 2.31 0 4.62 0 7q1.97 0 4 0 0-1.48 0-3 1.48 0 3 0 0-1.97 0-4c2.31 0 4.62 0 7 0q0-1.48 0-3 1.97 0 4 0 0-1.97 0-4 1.48 0 3 0 0-1.48 0-3c24.42 0 48.84 0 74 0q0-1.97 0-4 1.48 0 3 0 0-1.48 0-3 1.97 0 4 0c0-24.42 0-48.84 0-74q-1.97 0-4 0 0-1.48 0-3-1.48 0-3 0 0-1.97 0-4c-35.97 0-71.94 0-109 0z"/>
	<path class="s0" d="m169 59c17.49 0 34.98 0 53 0q0 1.48 0 3c2.31 0 4.62 0 7 0q0 1.97 0 4 1.48 0 3 0c0 2.31 0 4.62 0 7q1.97 0 4 0c0 28.71 0 57.42 0 87q-1.97 0-4 0c0 2.31 0 4.62 0 7q-1.48 0-3 0 0 1.97 0 4c-2.31 0-4.62 0-7 0q0 1.48 0 3c-3.63 0-7.26 0-11 0 0 9.24 0 18.48 0 28q-1.48 0-3 0 0-1.48 0-3c-2.31 0-4.62 0-7 0q0-1.97 0-4c-2.31 0-4.62 0-7 0q0-1.48 0-3c-2.31 0-4.62 0-7 0q0-1.97 0-4c-2.31 0-4.62 0-7 0q0-1.48 0-3c-2.31 0-4.62 0-7 0q0-1.97 0-4c-2.31 0-4.62 0-7 0q0-1.48 0-3c-2.31 0-4.62 0-7 0q0-1.97 0-4c-19.8 0-39.6 0-60 0q0-1.48 0-3c-2.31 0-4.62 0-7 0q0-1.97 0-4-1.48 0-3 0c0-2.31 0-4.62 0-7q-1.97 0-4 0c0-6.93 0-13.86 0-21 4.62 0 9.24 0 14 0 0 4.62 0 9.24 0 14q1.97 0 4 0 0 1.97 0 4 1.48 0 3 0 0 1.48 0 3c19.8 0 39.6 0 60 0q0 1.97 0 4c2.31 0 4.62 0 7 0q0 1.48 0 3c2.31 0 4.62 0 7 0q0 1.97 0 4c2.31 0 4.62 0 7 0q0 1.48 0 3c2.31 0 4.62 0 7 0q0 1.97 0 4 1.48 0 3 0c0-5.94 0-11.88 0-18 5.94 0 11.88 0 18 0q0-1.48 0-3 1.48 0 3 0 0-1.97 0-4 1.97 0 4 0c0-24.09 0-48.18 0-73q-1.97 0-4 0 0-1.97 0-4-1.48 0-3 0 0-1.48 0-3c-15.18 0-30.36 0-46 0 0-4.62 0-9.24 0-14z"/>
	<path class="s1" d="m40 76c28.71 0 57.42 0 87 0 0 4.62 0 9.24 0 14-28.71 0-57.42 0-87 0 0-4.62 0-9.24 0-14z"/>
	<path class="s0" d="m40 48c28.71 0 57.42 0 87 0 0 4.62 0 9.24 0 14-28.71 0-57.42 0-87 0 0-4.62 0-9.24 0-14z"/>
	<path class="s1" d="m159 129c14.85 0 29.7 0 45 0 0 4.62 0 9.24 0 14-14.85 0-29.7 0-45 0 0-4.62 0-9.24 0-14z"/>
	<path class="s0" d="m166 97c12.54 0 25.08 0 38 0 0 4.62 0 9.24 0 14-12.54 0-25.08 0-38 0 0-4.62 0-9.24 0-14z"/>
</svg>