<svg version="1.1" xmlns="http://www.w3.org/2000/svg" viewBox="0 0 240 248" preserveAspectRatio="xMidYMid meet" xmlns:xlink="http://www.w3.org/1999/xlink" xmlns:svgjs="http://svgjs.dev/svgjs">

<path d="M0 0 C2.31 0 4.62 0 7 0 C7 4.62 7 9.24 7 14 C12.94 14 18.88 14 25 14 C25 9.38 25 4.76 25 0 C27.31 0 29.62 0 32 0 C32 1.32 32 2.64 32 4 C32.99 4 33.98 4 35 4 C35 4.99 35 5.98 35 7 C36.32 7 37.64 7 39 7 C39 9.31 39 11.62 39 14 C39.99 14 40.98 14 42 14 C42 17.63 42 21.26 42 25 C41.01 25 40.02 25 39 25 C39 27.31 39 29.62 39 32 C37.68 32 36.36 32 35 32 C35 32.99 35 33.98 35 35 C34.01 35 33.02 35 32 35 C32 36.32 32 37.64 32 39 C30.68 39 29.36 39 28 39 C28 39.99 28 40.98 28 42 C30.31 42 32.62 42 35 42 C35 41.01 35 40.02 35 39 C39.62 39 44.24 39 49 39 C49 37.68 49 36.36 49 35 C50.32 35 51.64 35 53 35 C53 32.69 53 30.38 53 28 C53.99 28 54.98 28 56 28 C56 24.7 56 21.4 56 18 C57.32 18 58.64 18 60 18 C60 16.68 60 15.36 60 14 C63.3 14 66.6 14 70 14 C70 15.32 70 16.64 70 18 C71.32 18 72.64 18 74 18 C74 21.3 74 24.6 74 28 C74.99 28 75.98 28 77 28 C77 30.31 77 32.62 77 35 C78.32 35 79.64 35 81 35 C81 37.31 81 39.62 81 42 C81.99 42 82.98 42 84 42 C84 45.63 84 49.26 84 53 C85.32 53 86.64 53 88 53 C88 54.98 88 56.96 88 59 C88.99 59 89.98 59 91 59 C91 61.31 91 63.62 91 66 C92.32 66 93.64 66 95 66 C95 96.03 95 126.06 95 157 C91.37 157 87.74 157 84 157 C84 157.99 84 158.98 84 160 C79.38 160 74.76 160 70 160 C70 161.32 70 162.64 70 164 C65.38 164 60.76 164 56 164 C56 164.99 56 165.98 56 167 C51.38 167 46.76 167 42 167 C42 168.32 42 169.64 42 171 C37.38 171 32.76 171 28 171 C28 171.99 28 172.98 28 174 C24.7 174 21.4 174 18 174 C18 175.32 18 176.64 18 178 C13.38 178 8.76 178 4 178 C4 178.99 4 179.98 4 181 C-0.62 181 -5.24 181 -10 181 C-10 182.32 -10 183.64 -10 185 C-14.62 185 -19.24 185 -24 185 C-24 185.99 -24 186.98 -24 188 C-32.25 188 -40.5 188 -49 188 C-49 187.01 -49 186.02 -49 185 C-51.31 185 -53.62 185 -56 185 C-56 183.68 -56 182.36 -56 181 C-59.3 181 -62.6 181 -66 181 C-66 180.01 -66 179.02 -66 178 C-68.31 178 -70.62 178 -73 178 C-73 176.68 -73 175.36 -73 174 C-76.63 174 -80.26 174 -84 174 C-84 173.01 -84 172.02 -84 171 C-86.31 171 -88.62 171 -91 171 C-91 169.68 -91 168.36 -91 167 C-91.99 167 -92.98 167 -94 167 C-94 140.6 -94 114.2 -94 87 C-93.01 87 -92.02 87 -91 87 C-91 84.69 -91 82.38 -91 80 C-89.68 80 -88.36 80 -87 80 C-87 77.69 -87 75.38 -87 73 C-86.01 73 -85.02 73 -84 73 C-84 70.69 -84 68.38 -84 66 C-82.68 66 -81.36 66 -80 66 C-80 63.69 -80 61.38 -80 59 C-79.01 59 -78.02 59 -77 59 C-77 57.02 -77 55.04 -77 53 C-75.68 53 -74.36 53 -73 53 C-73 50.69 -73 48.38 -73 46 C-72.01 46 -71.02 46 -70 46 C-70 44.68 -70 43.36 -70 42 C-68.68 42 -67.36 42 -66 42 C-66 41.01 -66 40.02 -66 39 C-65.01 39 -64.02 39 -63 39 C-63 39.99 -63 40.98 -63 42 C-61.68 42 -60.36 42 -59 42 C-59 44.31 -59 46.62 -59 49 C-58.01 49 -57.02 49 -56 49 C-56 51.31 -56 53.62 -56 56 C-54.68 56 -53.36 56 -52 56 C-52 58.31 -52 60.62 -52 63 C-49.69 63 -47.38 63 -45 63 C-45 61.68 -45 60.36 -45 59 C-46.32 59 -47.64 59 -49 59 C-49 57.02 -49 55.04 -49 53 C-49.99 53 -50.98 53 -52 53 C-52 48.38 -52 43.76 -52 39 C-51.01 39 -50.02 39 -49 39 C-49 37.68 -49 36.36 -49 35 C-46.69 35 -44.38 35 -42 35 C-42 34.01 -42 33.02 -42 32 C-37.38 32 -32.76 32 -28 32 C-28 32.99 -28 33.98 -28 35 C-26.68 35 -25.36 35 -24 35 C-24 36.32 -24 37.64 -24 39 C-23.01 39 -22.02 39 -21 39 C-21 41.31 -21 43.62 -21 46 C-19.68 46 -18.36 46 -17 46 C-17 48.31 -17 50.62 -17 53 C-12.38 53 -7.76 53 -3 53 C-3 51.68 -3 50.36 -3 49 C-0.69 49 1.62 49 4 49 C4 45.7 4 42.4 4 39 C2.68 39 1.36 39 0 39 C0 37.68 0 36.36 0 35 C-0.99 35 -1.98 35 -3 35 C-3 34.01 -3 33.02 -3 32 C-4.32 32 -5.64 32 -7 32 C-7 29.69 -7 27.38 -7 25 C-7.99 25 -8.98 25 -10 25 C-10 21.37 -10 17.74 -10 14 C-9.01 14 -8.02 14 -7 14 C-7 11.69 -7 9.38 -7 7 C-5.68 7 -4.36 7 -3 7 C-3 6.01 -3 5.02 -3 4 C-2.01 4 -1.02 4 0 4 C0 2.68 0 1.36 0 0 Z " fill="#2A2829" transform="translate(117,31)"></path>
<path d="M0 0 C0.99 0 1.98 0 3 0 C3 20.46 3 40.92 3 62 C-0.3 62 -3.6 62 -7 62 C-7 63.32 -7 64.64 -7 66 C-11.62 66 -16.24 66 -21 66 C-21 66.99 -21 67.98 -21 69 C-24.63 69 -28.26 69 -32 69 C-32 70.32 -32 71.64 -32 73 C-36.62 73 -41.24 73 -46 73 C-46 73.99 -46 74.98 -46 76 C-50.62 76 -55.24 76 -60 76 C-60 77.32 -60 78.64 -60 80 C-64.62 80 -69.24 80 -74 80 C-74 80.99 -74 81.98 -74 83 C-78.62 83 -83.24 83 -88 83 C-88 84.32 -88 85.64 -88 87 C-91.3 87 -94.6 87 -98 87 C-98 87.99 -98 88.98 -98 90 C-101.63 90 -105.26 90 -109 90 C-109 91.32 -109 92.64 -109 94 C-111.31 94 -113.62 94 -116 94 C-116 73.21 -116 52.42 -116 31 C-112.37 31 -108.74 31 -105 31 C-105 30.01 -105 29.02 -105 28 C-100.38 28 -95.76 28 -91 28 C-91 26.68 -91 25.36 -91 24 C-86.38 24 -81.76 24 -77 24 C-77 23.01 -77 22.02 -77 21 C-73.7 21 -70.4 21 -67 21 C-67 19.68 -67 18.36 -67 17 C-62.38 17 -57.76 17 -53 17 C-53 16.01 -53 15.02 -53 14 C-48.38 14 -43.76 14 -39 14 C-39 12.68 -39 11.36 -39 10 C-35.37 10 -31.74 10 -28 10 C-28 9.01 -28 8.02 -28 7 C-23.38 7 -18.76 7 -14 7 C-14 5.68 -14 4.36 -14 3 C-9.38 3 -4.76 3 0 3 C0 2.01 0 1.02 0 0 Z " fill="#FEFEFE" transform="translate(198,115)"></path>
<path d="M0 0 C0.99 0 1.98 0 3 0 C3 2.31 3 4.62 3 7 C4.32 7 5.64 7 7 7 C7 9.31 7 11.62 7 14 C7.99 14 8.98 14 10 14 C10 17.63 10 21.26 10 25 C11.32 25 12.64 25 14 25 C14 28.3 14 31.6 14 35 C14.99 35 15.98 35 17 35 C17 38.63 17 42.26 17 46 C18.32 46 19.64 46 21 46 C21 68.77 21 91.54 21 115 C19.68 115 18.36 115 17 115 C17 114.01 17 113.02 17 112 C13.7 112 10.4 112 7 112 C7 110.68 7 109.36 7 108 C4.69 108 2.38 108 0 108 C0 107.01 0 106.02 0 105 C-3.63 105 -7.26 105 -11 105 C-11 103.68 -11 102.36 -11 101 C-13.31 101 -15.62 101 -18 101 C-18 79.22 -18 57.44 -18 35 C-16.68 35 -15.36 35 -14 35 C-14 32.69 -14 30.38 -14 28 C-13.01 28 -12.02 28 -11 28 C-11 25.69 -11 23.38 -11 21 C-9.68 21 -8.36 21 -7 21 C-7 18.69 -7 16.38 -7 14 C-6.01 14 -5.02 14 -4 14 C-4 11.69 -4 9.38 -4 7 C-2.68 7 -1.36 7 0 7 C0 4.69 0 2.38 0 0 Z " fill="#FEFEFE" transform="translate(51,90)"></path>
<path d="M0 0 C1.32 0 2.64 0 4 0 C4 2.31 4 4.62 4 7 C4.99 7 5.98 7 7 7 C7 10.63 7 14.26 7 18 C8.32 18 9.64 18 11 18 C11 21.3 11 24.6 11 28 C11.99 28 12.98 28 14 28 C14 30.31 14 32.62 14 35 C15.32 35 16.64 35 18 35 C18 37.31 18 39.62 18 42 C18.99 42 19.98 42 21 42 C21 42.99 21 43.98 21 45 C17.7 45 14.4 45 11 45 C11 46.32 11 47.64 11 49 C6.38 49 1.76 49 -3 49 C-3 49.99 -3 50.98 -3 52 C-6.63 52 -10.26 52 -14 52 C-14 53.32 -14 54.64 -14 56 C-14.99 56 -15.98 56 -17 56 C-17 53.69 -17 51.38 -17 49 C-16.01 49 -15.02 49 -14 49 C-14 44.38 -14 39.76 -14 35 C-11.69 35 -9.38 35 -7 35 C-7 33.68 -7 32.36 -7 31 C-3.37 31 0.26 31 4 31 C4 30.01 4 29.02 4 28 C4.99 28 5.98 28 7 28 C7 25.69 7 23.38 7 21 C6.01 21 5.02 21 4 21 C4 17.7 4 14.4 4 11 C2.68 11 1.36 11 0 11 C0 7.37 0 3.74 0 0 Z " fill="#FEFEFE" transform="translate(180,59)"></path>
<path d="M0 0 C3.63 0 7.26 0 11 0 C11 0.99 11 1.98 11 3 C8.69 3 6.38 3 4 3 C4 4.32 4 5.64 4 7 C-0.62 7 -5.24 7 -10 7 C-10 7.99 -10 8.98 -10 10 C-14.62 10 -19.24 10 -24 10 C-24 10.99 -24 11.98 -24 13 C-27.63 13 -31.26 13 -35 13 C-35 14.32 -35 15.64 -35 17 C-39.62 17 -44.24 17 -49 17 C-49 17.99 -49 18.98 -49 20 C-52.3 20 -55.6 20 -59 20 C-59 19.01 -59 18.02 -59 17 C-56.69 17 -54.38 17 -52 17 C-52 15.68 -52 14.36 -52 13 C-47.38 13 -42.76 13 -38 13 C-38 12.01 -38 11.02 -38 10 C-34.7 10 -31.4 10 -28 10 C-28 9.01 -28 8.02 -28 7 C-23.38 7 -18.76 7 -14 7 C-14 5.68 -14 4.36 -14 3 C-9.38 3 -4.76 3 0 3 C0 2.01 0 1.02 0 0 Z " fill="#FEFEFE" transform="translate(166,77)"></path>
<path d="M0 0 C2.31 0 4.62 0 7 0 C7 2.31 7 4.62 7 7 C8.32 7 9.64 7 11 7 C11 9.31 11 11.62 11 14 C11.99 14 12.98 14 14 14 C14 14.99 14 15.98 14 17 C10.7 17 7.4 17 4 17 C4 18.32 4 19.64 4 21 C2.68 21 1.36 21 0 21 C0 19.68 0 18.36 0 17 C-0.99 17 -1.98 17 -3 17 C-3 13.7 -3 10.4 -3 7 C-4.32 7 -5.64 7 -7 7 C-7 5.68 -7 4.36 -7 3 C-4.69 3 -2.38 3 0 3 C0 2.01 0 1.02 0 0 Z " fill="#FEFEFE" transform="translate(82,115)"></path>
<path d="M0 0 C2.31 0 4.62 0 7 0 C7 0.99 7 1.98 7 3 C8.32 3 9.64 3 11 3 C11 6.63 11 10.26 11 14 C9.68 14 8.36 14 7 14 C7 14.99 7 15.98 7 17 C4.69 17 2.38 17 0 17 C0 16.01 0 15.02 0 14 C-0.99 14 -1.98 14 -3 14 C-3 10.37 -3 6.74 -3 3 C-2.01 3 -1.02 3 0 3 C0 2.01 0 1.02 0 0 Z " fill="#2B2929" transform="translate(89,181)"></path>
<path d="M0 0 C2.31 0 4.62 0 7 0 C7 0.99 7 1.98 7 3 C8.32 3 9.64 3 11 3 C11 6.63 11 10.26 11 14 C9.68 14 8.36 14 7 14 C7 14.99 7 15.98 7 17 C4.69 17 2.38 17 0 17 C0 16.01 0 15.02 0 14 C-0.99 14 -1.98 14 -3 14 C-3 10.37 -3 6.74 -3 3 C-2.01 3 -1.02 3 0 3 C0 2.01 0 1.02 0 0 Z " fill="#2B2829" transform="translate(187,122)"></path>
<path d="M0 0 C2.31 0 4.62 0 7 0 C7 1.32 7 2.64 7 4 C8.32 4 9.64 4 11 4 C11 7.3 11 10.6 11 14 C9.68 14 8.36 14 7 14 C7 14.99 7 15.98 7 17 C4.69 17 2.38 17 0 17 C0 16.01 0 15.02 0 14 C-0.99 14 -1.98 14 -3 14 C-3 10.7 -3 7.4 -3 4 C-2.01 4 -1.02 4 0 4 C0 2.68 0 1.36 0 0 Z " fill="#2A2829" transform="translate(187,153)"></path>
<path d="M0 0 C2.31 0 4.62 0 7 0 C7 0.99 7 1.98 7 3 C8.32 3 9.64 3 11 3 C11 6.3 11 9.6 11 13 C9.68 13 8.36 13 7 13 C7 14.32 7 15.64 7 17 C4.69 17 2.38 17 0 17 C0 15.68 0 14.36 0 13 C-0.99 13 -1.98 13 -3 13 C-3 9.7 -3 6.4 -3 3 C-2.01 3 -1.02 3 0 3 C0 2.01 0 1.02 0 0 Z " fill="#2A2829" transform="translate(89,150)"></path>
<path d="M0 0 C2.31 0 4.62 0 7 0 C7 2.31 7 4.62 7 7 C5.68 7 4.36 7 3 7 C3 10.63 3 14.26 3 18 C2.01 18 1.02 18 0 18 C0 18.99 0 19.98 0 21 C-1.32 21 -2.64 21 -4 21 C-4 15.39 -4 9.78 -4 4 C-2.68 4 -1.36 4 0 4 C0 2.68 0 1.36 0 0 Z " fill="#FEFEFE" transform="translate(149,97)"></path>
<path d="M0 0 C2.31 0 4.62 0 7 0 C7 5.61 7 11.22 7 17 C5.68 17 4.36 17 3 17 C3 14.69 3 12.38 3 10 C2.01 10 1.02 10 0 10 C0 6.7 0 3.4 0 0 Z " fill="#FEFDFE" transform="translate(114,108)"></path>
<path d="M0 0 C2.31 0 4.62 0 7 0 C7 1.32 7 2.64 7 4 C4.69 4 2.38 4 0 4 C0 2.68 0 1.36 0 0 Z " fill="#FEFDFE" transform="translate(72,104)"></path>
</svg>